<mxfile host="app.diagrams.net" modified="2023-03-27T19:58:12.203Z" agent="Mozilla/5.0 (Windows NT 10.0; Win64; x64) AppleWebKit/537.36 (KHTML, like Gecko) Chrome/111.0.0.0 Safari/537.36" version="21.1.1" etag="sVzQm76rV4VGokHzfH0W" type="github">
  <diagram name="PÃ¡gina-1" id="bCXSfVvzv8TKMdsnj25Y">
    <mxGraphModel>
      <root>
        <mxCell id="0" />
        <mxCell id="1" parent="0" />
      </root>
    </mxGraphModel>
  </diagram>
</mxfile>
